<mxfile host="Electron" agent="Mozilla/5.0 (Windows NT 10.0; Win64; x64) AppleWebKit/537.36 (KHTML, like Gecko) draw.io/26.1.1 Chrome/132.0.6834.210 Electron/34.3.3 Safari/537.36" version="26.1.1">
  <diagram name="第 1 页" id="7PoZXuEiIua66zIGCPEJ">
    <mxGraphModel dx="2165" dy="820" grid="1" gridSize="10" guides="1" tooltips="1" connect="1" arrows="1" fold="1" page="1" pageScale="1" pageWidth="827" pageHeight="1169" math="0" shadow="0">
      <root>
        <object label="" id="0">
          <mxCell />
        </object>
        <mxCell id="1" parent="0" />
        <mxCell id="lewZMdHBQqowtj67qfUt-5" value="" style="shape=actor;whiteSpace=wrap;html=1;strokeColor=#00E5FF;" vertex="1" parent="1">
          <mxGeometry x="-40" y="170" width="40" height="60" as="geometry" />
        </mxCell>
        <mxCell id="lewZMdHBQqowtj67qfUt-6" value="" style="shape=actor;whiteSpace=wrap;html=1;strokeColor=#FF0000;" vertex="1" parent="1">
          <mxGeometry x="-40" y="360" width="40" height="60" as="geometry" />
        </mxCell>
        <mxCell id="lewZMdHBQqowtj67qfUt-7" value="" style="shape=actor;whiteSpace=wrap;html=1;strokeColor=#EEFF00;" vertex="1" parent="1">
          <mxGeometry x="-40" y="545" width="40" height="60" as="geometry" />
        </mxCell>
        <mxCell id="lewZMdHBQqowtj67qfUt-8" value="" style="rounded=0;whiteSpace=wrap;html=1;" vertex="1" parent="1">
          <mxGeometry x="70" y="20" width="820" height="640" as="geometry" />
        </mxCell>
        <mxCell id="lewZMdHBQqowtj67qfUt-9" value="" style="shape=singleArrow;whiteSpace=wrap;html=1;" vertex="1" parent="1">
          <mxGeometry y="190" width="70" height="40" as="geometry" />
        </mxCell>
        <mxCell id="lewZMdHBQqowtj67qfUt-10" value="" style="shape=singleArrow;whiteSpace=wrap;html=1;" vertex="1" parent="1">
          <mxGeometry y="380" width="70" height="40" as="geometry" />
        </mxCell>
        <mxCell id="lewZMdHBQqowtj67qfUt-11" value="" style="shape=singleArrow;whiteSpace=wrap;html=1;" vertex="1" parent="1">
          <mxGeometry y="565" width="70" height="40" as="geometry" />
        </mxCell>
        <mxCell id="lewZMdHBQqowtj67qfUt-12" value="&lt;font face=&quot;Times New Roman&quot;&gt;manager&lt;/font&gt;" style="text;strokeColor=none;fillColor=none;html=1;fontSize=24;fontStyle=1;verticalAlign=middle;align=center;" vertex="1" parent="1">
          <mxGeometry x="-60" y="240" width="80" height="20" as="geometry" />
        </mxCell>
        <mxCell id="lewZMdHBQqowtj67qfUt-13" value="&lt;font face=&quot;Times New Roman&quot;&gt;staff&lt;/font&gt;" style="text;strokeColor=none;fillColor=none;html=1;fontSize=24;fontStyle=1;verticalAlign=middle;align=center;" vertex="1" parent="1">
          <mxGeometry x="-70" y="410" width="100" height="40" as="geometry" />
        </mxCell>
        <mxCell id="lewZMdHBQqowtj67qfUt-14" value="&lt;font face=&quot;Times New Roman&quot;&gt;user&lt;/font&gt;" style="text;strokeColor=none;fillColor=none;html=1;fontSize=24;fontStyle=1;verticalAlign=middle;align=center;" vertex="1" parent="1">
          <mxGeometry x="-70" y="600" width="100" height="40" as="geometry" />
        </mxCell>
        <mxCell id="lewZMdHBQqowtj67qfUt-15" value="SBEAM STORE SYSTEM" style="text;strokeColor=none;fillColor=none;html=1;fontSize=24;fontStyle=1;verticalAlign=middle;align=center;" vertex="1" parent="1">
          <mxGeometry x="430" y="30" width="100" height="40" as="geometry" />
        </mxCell>
        <mxCell id="lewZMdHBQqowtj67qfUt-17" value="" style="rounded=0;whiteSpace=wrap;html=1;" vertex="1" parent="1">
          <mxGeometry x="160" y="180" width="120" height="60" as="geometry" />
        </mxCell>
        <mxCell id="lewZMdHBQqowtj67qfUt-18" value="创建商店" style="text;strokeColor=none;fillColor=none;html=1;fontSize=24;fontStyle=1;verticalAlign=middle;align=center;" vertex="1" parent="1">
          <mxGeometry x="170" y="190" width="100" height="40" as="geometry" />
        </mxCell>
        <mxCell id="lewZMdHBQqowtj67qfUt-19" value="" style="rounded=0;whiteSpace=wrap;html=1;" vertex="1" parent="1">
          <mxGeometry x="170" y="300" width="120" height="60" as="geometry" />
        </mxCell>
        <mxCell id="lewZMdHBQqowtj67qfUt-20" value="" style="rounded=0;whiteSpace=wrap;html=1;" vertex="1" parent="1">
          <mxGeometry x="340" y="300" width="120" height="60" as="geometry" />
        </mxCell>
        <mxCell id="lewZMdHBQqowtj67qfUt-22" value="" style="rounded=0;whiteSpace=wrap;html=1;" vertex="1" parent="1">
          <mxGeometry x="510" y="300" width="120" height="60" as="geometry" />
        </mxCell>
        <mxCell id="lewZMdHBQqowtj67qfUt-23" value="" style="rounded=0;whiteSpace=wrap;html=1;" vertex="1" parent="1">
          <mxGeometry x="680" y="300" width="120" height="60" as="geometry" />
        </mxCell>
        <mxCell id="lewZMdHBQqowtj67qfUt-24" value="" style="rounded=0;whiteSpace=wrap;html=1;" vertex="1" parent="1">
          <mxGeometry x="170" y="390" width="120" height="60" as="geometry" />
        </mxCell>
        <mxCell id="lewZMdHBQqowtj67qfUt-25" value="" style="rounded=0;whiteSpace=wrap;html=1;" vertex="1" parent="1">
          <mxGeometry x="340" y="390" width="120" height="60" as="geometry" />
        </mxCell>
        <mxCell id="lewZMdHBQqowtj67qfUt-26" value="" style="rounded=0;whiteSpace=wrap;html=1;" vertex="1" parent="1">
          <mxGeometry x="510" y="390" width="120" height="60" as="geometry" />
        </mxCell>
        <mxCell id="lewZMdHBQqowtj67qfUt-27" value="" style="rounded=0;whiteSpace=wrap;html=1;" vertex="1" parent="1">
          <mxGeometry x="680" y="390" width="120" height="60" as="geometry" />
        </mxCell>
        <mxCell id="lewZMdHBQqowtj67qfUt-28" value="" style="rounded=0;whiteSpace=wrap;html=1;" vertex="1" parent="1">
          <mxGeometry x="170" y="480" width="120" height="60" as="geometry" />
        </mxCell>
        <mxCell id="lewZMdHBQqowtj67qfUt-29" value="" style="rounded=0;whiteSpace=wrap;html=1;" vertex="1" parent="1">
          <mxGeometry x="340" y="480" width="120" height="60" as="geometry" />
        </mxCell>
        <mxCell id="lewZMdHBQqowtj67qfUt-30" value="" style="rounded=0;whiteSpace=wrap;html=1;" vertex="1" parent="1">
          <mxGeometry x="510" y="480" width="120" height="60" as="geometry" />
        </mxCell>
        <mxCell id="lewZMdHBQqowtj67qfUt-31" value="" style="rounded=0;whiteSpace=wrap;html=1;" vertex="1" parent="1">
          <mxGeometry x="680" y="480" width="120" height="60" as="geometry" />
        </mxCell>
        <mxCell id="lewZMdHBQqowtj67qfUt-32" value="" style="rounded=0;whiteSpace=wrap;html=1;" vertex="1" parent="1">
          <mxGeometry x="170" y="570" width="120" height="60" as="geometry" />
        </mxCell>
        <mxCell id="lewZMdHBQqowtj67qfUt-33" value="" style="rounded=0;whiteSpace=wrap;html=1;" vertex="1" parent="1">
          <mxGeometry x="340" y="570" width="120" height="60" as="geometry" />
        </mxCell>
        <mxCell id="lewZMdHBQqowtj67qfUt-34" value="" style="rounded=0;whiteSpace=wrap;html=1;" vertex="1" parent="1">
          <mxGeometry x="510" y="570" width="120" height="60" as="geometry" />
        </mxCell>
        <mxCell id="lewZMdHBQqowtj67qfUt-35" value="" style="rounded=0;whiteSpace=wrap;html=1;" vertex="1" parent="1">
          <mxGeometry x="680" y="570" width="120" height="60" as="geometry" />
        </mxCell>
        <mxCell id="lewZMdHBQqowtj67qfUt-36" value="注册" style="text;strokeColor=none;fillColor=none;html=1;fontSize=24;fontStyle=1;verticalAlign=middle;align=center;" vertex="1" parent="1">
          <mxGeometry x="180" y="310" width="100" height="40" as="geometry" />
        </mxCell>
        <mxCell id="lewZMdHBQqowtj67qfUt-37" value="注册" style="text;strokeColor=none;fillColor=none;html=1;fontSize=24;fontStyle=1;verticalAlign=middle;align=center;" vertex="1" parent="1">
          <mxGeometry x="180" y="490" width="100" height="40" as="geometry" />
        </mxCell>
        <mxCell id="lewZMdHBQqowtj67qfUt-38" value="登录" style="text;strokeColor=none;fillColor=none;html=1;fontSize=24;fontStyle=1;verticalAlign=middle;align=center;" vertex="1" parent="1">
          <mxGeometry x="350" y="310" width="100" height="40" as="geometry" />
        </mxCell>
        <mxCell id="lewZMdHBQqowtj67qfUt-39" value="登录" style="text;strokeColor=none;fillColor=none;html=1;fontSize=24;fontStyle=1;verticalAlign=middle;align=center;" vertex="1" parent="1">
          <mxGeometry x="350" y="490" width="100" height="40" as="geometry" />
        </mxCell>
        <mxCell id="lewZMdHBQqowtj67qfUt-40" value="浏览商品" style="text;strokeColor=none;fillColor=none;html=1;fontSize=24;fontStyle=1;verticalAlign=middle;align=center;" vertex="1" parent="1">
          <mxGeometry x="520" y="310" width="100" height="40" as="geometry" />
        </mxCell>
        <mxCell id="lewZMdHBQqowtj67qfUt-41" value="浏览商品" style="text;strokeColor=none;fillColor=none;html=1;fontSize=24;fontStyle=1;verticalAlign=middle;align=center;" vertex="1" parent="1">
          <mxGeometry x="520" y="490" width="100" height="40" as="geometry" />
        </mxCell>
        <mxCell id="lewZMdHBQqowtj67qfUt-42" value="下订单" style="text;strokeColor=none;fillColor=none;html=1;fontSize=24;fontStyle=1;verticalAlign=middle;align=center;" vertex="1" parent="1">
          <mxGeometry x="690" y="310" width="100" height="40" as="geometry" />
        </mxCell>
        <mxCell id="lewZMdHBQqowtj67qfUt-44" value="下订单" style="text;strokeColor=none;fillColor=none;html=1;fontSize=24;fontStyle=1;verticalAlign=middle;align=center;" vertex="1" parent="1">
          <mxGeometry x="690" y="490" width="100" height="40" as="geometry" />
        </mxCell>
        <mxCell id="lewZMdHBQqowtj67qfUt-45" value="付款" style="text;strokeColor=none;fillColor=none;html=1;fontSize=24;fontStyle=1;verticalAlign=middle;align=center;" vertex="1" parent="1">
          <mxGeometry x="180" y="400" width="100" height="40" as="geometry" />
        </mxCell>
        <mxCell id="lewZMdHBQqowtj67qfUt-46" value="付款" style="text;strokeColor=none;fillColor=none;html=1;fontSize=24;fontStyle=1;verticalAlign=middle;align=center;" vertex="1" parent="1">
          <mxGeometry x="180" y="580" width="100" height="40" as="geometry" />
        </mxCell>
        <mxCell id="lewZMdHBQqowtj67qfUt-48" value="处理订单信息" style="text;strokeColor=none;fillColor=none;html=1;fontSize=24;fontStyle=1;verticalAlign=middle;align=center;" vertex="1" parent="1">
          <mxGeometry x="350" y="580" width="100" height="40" as="geometry" />
        </mxCell>
        <mxCell id="lewZMdHBQqowtj67qfUt-49" value="参与抽奖" style="text;strokeColor=none;fillColor=none;html=1;fontSize=24;fontStyle=1;verticalAlign=middle;align=center;" vertex="1" parent="1">
          <mxGeometry x="350" y="403.34000000000003" width="100" height="40" as="geometry" />
        </mxCell>
        <mxCell id="lewZMdHBQqowtj67qfUt-50" value="添加好友" style="text;strokeColor=none;fillColor=none;html=1;fontSize=24;fontStyle=1;verticalAlign=middle;align=center;" vertex="1" parent="1">
          <mxGeometry x="690" y="400" width="100" height="40" as="geometry" />
        </mxCell>
        <mxCell id="lewZMdHBQqowtj67qfUt-51" value="创建商品" style="text;strokeColor=none;fillColor=none;html=1;fontSize=24;fontStyle=1;verticalAlign=middle;align=center;" vertex="1" parent="1">
          <mxGeometry x="520" y="580" width="100" height="40" as="geometry" />
        </mxCell>
        <mxCell id="lewZMdHBQqowtj67qfUt-52" value="选择商店" style="text;strokeColor=none;fillColor=none;html=1;fontSize=24;fontStyle=1;verticalAlign=middle;align=center;" vertex="1" parent="1">
          <mxGeometry x="690" y="580" width="100" height="40" as="geometry" />
        </mxCell>
        <mxCell id="lewZMdHBQqowtj67qfUt-53" value="" style="shape=singleArrow;whiteSpace=wrap;html=1;" vertex="1" parent="1">
          <mxGeometry x="283.33" y="310" width="66.67" height="40" as="geometry" />
        </mxCell>
        <mxCell id="lewZMdHBQqowtj67qfUt-54" value="" style="shape=singleArrow;whiteSpace=wrap;html=1;" vertex="1" parent="1">
          <mxGeometry x="623.3299999999999" y="310" width="66.67" height="40" as="geometry" />
        </mxCell>
        <mxCell id="lewZMdHBQqowtj67qfUt-55" value="" style="shape=singleArrow;whiteSpace=wrap;html=1;" vertex="1" parent="1">
          <mxGeometry x="283.33" y="490" width="66.67" height="40" as="geometry" />
        </mxCell>
        <mxCell id="lewZMdHBQqowtj67qfUt-56" value="" style="shape=singleArrow;whiteSpace=wrap;html=1;" vertex="1" parent="1">
          <mxGeometry x="623.3299999999999" y="490" width="66.67" height="40" as="geometry" />
        </mxCell>
        <mxCell id="lewZMdHBQqowtj67qfUt-57" value="" style="shape=singleArrow;whiteSpace=wrap;html=1;direction=west;" vertex="1" parent="1">
          <mxGeometry x="620" y="403.34" width="66.67" height="40" as="geometry" />
        </mxCell>
        <mxCell id="lewZMdHBQqowtj67qfUt-47" value="管理个人信息" style="text;strokeColor=none;fillColor=none;html=1;fontSize=24;fontStyle=1;verticalAlign=middle;align=center;" vertex="1" parent="1">
          <mxGeometry x="523.33" y="403.34" width="100" height="40" as="geometry" />
        </mxCell>
        <mxCell id="lewZMdHBQqowtj67qfUt-58" value="" style="shape=singleArrow;whiteSpace=wrap;html=1;direction=west;" vertex="1" parent="1">
          <mxGeometry x="620" y="580" width="66.67" height="40" as="geometry" />
        </mxCell>
        <mxCell id="lewZMdHBQqowtj67qfUt-61" value="" style="shape=link;html=1;rounded=0;entryX=0.998;entryY=0.548;entryDx=0;entryDy=0;entryPerimeter=0;" edge="1" parent="1">
          <mxGeometry width="100" relative="1" as="geometry">
            <mxPoint x="70" y="460" as="sourcePoint" />
            <mxPoint x="888.3600000000001" y="460.72" as="targetPoint" />
          </mxGeometry>
        </mxCell>
      </root>
    </mxGraphModel>
  </diagram>
</mxfile>
